<mxfile host="app.diagrams.net" modified="2023-05-31T18:40:27.922Z" agent="Mozilla/5.0 (Windows NT 10.0; Win64; x64) AppleWebKit/537.36 (KHTML, like Gecko) Chrome/113.0.0.0 Safari/537.36" version="21.3.6" etag="z94xdPKwEFQXO0AIsOUd" type="github">
  <diagram name="Page-1" id="cdfSOh-yHQmfq21NCN2S">
    <mxGraphModel>
      <root>
        <mxCell id="0" />
        <mxCell id="1" parent="0" />
      </root>
    </mxGraphModel>
  </diagram>
</mxfile>
